<svg width="26" height="26" viewBox="0 0 26 26" fill="none" xmlns="http://www.w3.org/2000/svg">
<path d="M20.5837 21.6669H5.41699C5.12967 21.6669 4.85412 21.7811 4.65096 21.9842C4.44779 22.1874 4.33365 22.4629 4.33365 22.7503C4.33365 23.0376 4.44779 23.3131 4.65096 23.5163C4.85412 23.7195 5.12967 23.8336 5.41699 23.8336H20.5837C20.871 23.8336 21.1465 23.7195 21.3497 23.5163C21.5529 23.3131 21.667 23.0376 21.667 22.7503C21.667 22.4629 21.5529 22.1874 21.3497 21.9842C21.1465 21.7811 20.871 21.6669 20.5837 21.6669ZM5.41699 19.5003H5.51449L10.032 19.0886C10.5269 19.0393 10.9897 18.8213 11.3428 18.4711L21.0928 8.72109C21.4712 8.3213 21.6758 7.7878 21.6615 7.2375C21.6473 6.6872 21.4155 6.16497 21.017 5.78525L18.0487 2.81692C17.6612 2.45302 17.1536 2.24423 16.6223 2.23024C16.0909 2.21626 15.573 2.39807 15.167 2.74109L5.41699 12.4911C5.06682 12.8442 4.84878 13.3071 4.79949 13.8019L4.33365 18.3194C4.31906 18.4781 4.33965 18.638 4.39395 18.7878C4.44826 18.9376 4.53494 19.0736 4.64782 19.1861C4.74905 19.2865 4.8691 19.3659 5.00109 19.4198C5.13308 19.4738 5.27441 19.5011 5.41699 19.5003ZM16.5428 4.33359L19.5003 7.29109L17.3337 9.40359L14.4303 6.50025L16.5428 4.33359ZM6.90115 13.9861L13.0003 7.93025L15.9253 10.8553L9.85865 16.9219L6.60865 17.2253L6.90115 13.9861Z" fill="black"/>
</svg>
