<svg width="18" height="18" viewBox="0 0 18 18" fill="none" xmlns="http://www.w3.org/2000/svg">
<g clip-path="url(#clip0_1_861)">
<path d="M7.29524 12.9084V7.14149H6.61086C6.12071 7.40278 5.647 7.69379 5.19238 8.01291V8.76431C5.59782 8.48646 6.24003 8.09399 6.55248 7.92425H6.56546V12.9084H7.29524ZM8.57965 11.4975C8.63047 12.1894 9.22186 13.0176 10.4209 13.0176C11.781 13.0176 12.5832 11.8651 12.5832 9.91359C12.5832 7.82262 11.7388 7.02905 10.4717 7.02905C9.47053 7.02905 8.52884 7.75559 8.52884 8.98487C8.52884 10.239 9.41972 10.8985 10.3409 10.8985C11.1474 10.8985 11.6707 10.492 11.8361 10.0444H11.8653C11.861 11.4672 11.3669 12.384 10.4544 12.384C9.7365 12.384 9.36458 11.8975 9.31917 11.4975H8.57965ZM11.7723 8.99244C11.7723 9.74493 11.168 10.2682 10.4922 10.2682C9.84245 10.2682 9.25538 9.85412 9.25538 8.97081C9.25538 8.08102 9.88461 7.66261 10.5182 7.66261C11.2025 7.66261 11.7723 8.09291 11.7723 8.99244Z" fill="white"/>
<path d="M4.11121 0.272217C4.25458 0.272217 4.39208 0.329171 4.49345 0.430549C4.59483 0.531927 4.65179 0.669426 4.65179 0.812797V1.35338H13.3011V0.812797C13.3011 0.669426 13.358 0.531927 13.4594 0.430549C13.5608 0.329171 13.6983 0.272217 13.8416 0.272217C13.985 0.272217 14.1225 0.329171 14.2239 0.430549C14.3253 0.531927 14.3822 0.669426 14.3822 0.812797V1.35338H15.4634C16.0369 1.35338 16.5869 1.58119 16.9924 1.9867C17.3979 2.39222 17.6257 2.94221 17.6257 3.5157V15.4084C17.6257 15.9819 17.3979 16.5319 16.9924 16.9374C16.5869 17.343 16.0369 17.5708 15.4634 17.5708H2.48947C1.91598 17.5708 1.36599 17.343 0.960477 16.9374C0.554964 16.5319 0.327148 15.9819 0.327148 15.4084V3.5157C0.327148 2.94221 0.554964 2.39222 0.960477 1.9867C1.36599 1.58119 1.91598 1.35338 2.48947 1.35338H3.57063V0.812797C3.57063 0.669426 3.62758 0.531927 3.72896 0.430549C3.83034 0.329171 3.96784 0.272217 4.11121 0.272217V0.272217ZM1.40831 4.59685V15.4084C1.40831 15.6952 1.52222 15.9702 1.72497 16.1729C1.92773 16.3757 2.20273 16.4896 2.48947 16.4896H15.4634C15.7501 16.4896 16.0251 16.3757 16.2279 16.1729C16.4306 15.9702 16.5445 15.6952 16.5445 15.4084V4.59685H1.40831Z" fill="white"/>
</g>
<defs>
<clipPath id="clip0_1_861">
<rect width="17.2986" height="17.2986" fill="white" transform="translate(0.327148 0.272217)"/>
</clipPath>
</defs>
</svg>
