<svg width="17" height="17" viewBox="0 0 17 17" fill="none" xmlns="http://www.w3.org/2000/svg">
<path d="M11.9507 14.1488L11.4894 10.4556C11.4241 9.93247 11.1698 9.45125 10.7746 9.10243C10.3793 8.7536 9.87017 8.5612 9.34298 8.5614H7.75439C7.22745 8.56155 6.7187 8.75411 6.32372 9.1029C5.92874 9.4517 5.67471 9.93272 5.60937 10.4556L5.14736 14.1488C5.122 14.3517 5.1401 14.5577 5.20046 14.7531C5.26082 14.9485 5.36205 15.1288 5.49744 15.282C5.63283 15.4353 5.79927 15.5579 5.98571 15.6419C6.17215 15.7259 6.37433 15.7693 6.57881 15.7691H10.52C10.7244 15.7692 10.9265 15.7257 11.1129 15.6417C11.2992 15.5577 11.4656 15.435 11.6009 15.2817C11.7362 15.1285 11.8374 14.9482 11.8977 14.7529C11.958 14.5576 11.9761 14.3517 11.9507 14.1488V14.1488Z" stroke="white" stroke-width="1.08116" stroke-linecap="round" stroke-linejoin="round"/>
<path d="M8.54953 5.67803C9.74374 5.67803 10.7118 4.70993 10.7118 3.51571C10.7118 2.3215 9.74374 1.35339 8.54953 1.35339C7.35531 1.35339 6.38721 2.3215 6.38721 3.51571C6.38721 4.70993 7.35531 5.67803 8.54953 5.67803Z" stroke="white" stroke-width="1.08116"/>
<path d="M2.78334 7.84C3.57949 7.84 4.22489 7.1946 4.22489 6.39846C4.22489 5.60231 3.57949 4.95691 2.78334 4.95691C1.9872 4.95691 1.3418 5.60231 1.3418 6.39846C1.3418 7.1946 1.9872 7.84 2.78334 7.84Z" stroke="white" stroke-width="1.08116"/>
<path d="M14.3156 7.84C15.1117 7.84 15.7571 7.1946 15.7571 6.39846C15.7571 5.60231 15.1117 4.95691 14.3156 4.95691C13.5194 4.95691 12.874 5.60231 12.874 6.39846C12.874 7.1946 13.5194 7.84 14.3156 7.84Z" stroke="white" stroke-width="1.08116"/>
<path d="M2.78316 10.0027H2.5626C2.22136 10.0026 1.89117 10.1237 1.63077 10.3442C1.37037 10.5647 1.19665 10.8705 1.14051 11.2071L0.900498 12.6486C0.866053 12.8552 0.877016 13.0667 0.932622 13.2686C0.988228 13.4705 1.08714 13.6578 1.22249 13.8176C1.35783 13.9773 1.52635 14.1057 1.71634 14.1937C1.90632 14.2818 2.1132 14.3273 2.32258 14.3273H4.94548M14.3155 10.0027H14.5361C14.8773 10.0026 15.2075 10.1237 15.4679 10.3442C15.7283 10.5647 15.902 10.8705 15.9582 11.2071L16.1982 12.6486C16.2326 12.8552 16.2217 13.0667 16.1661 13.2686C16.1105 13.4705 16.0115 13.6578 15.8762 13.8176C15.7408 13.9773 15.5723 14.1057 15.3823 14.1937C15.1924 14.2818 14.9855 14.3273 14.7761 14.3273H12.1532" stroke="white" stroke-width="1.08116" stroke-linecap="round" stroke-linejoin="round"/>
</svg>
