<svg width="97" height="24" viewBox="0 0 97 24" fill="none" xmlns="http://www.w3.org/2000/svg">
<path d="M-7.17494e-06 8.12309C5.57704 16.1056 29.8414 24.0513 46.1621 23.5526C63.8031 23.0535 73.4636 19.563 92.2711 6.72756C92.2165 8.13291 92.0508 9.27657 92.0776 10.3198C92.0583 11.51 92.0498 12.7684 92.3016 13.9155C92.3557 14.2561 93.0632 14.7722 93.4807 14.7757C93.8982 14.7791 94.5002 14.1946 94.5816 13.8325C95.2821 10.3692 95.847 6.92745 96.4688 3.4068C96.6345 2.26314 96.0979 1.51041 94.8916 1.35296C90.3127 0.963311 85.723 0.505543 81.0872 0.194776C80.038 0.15201 78.8613 0.61835 77.5057 0.833781C79.0556 3.59029 81.4416 2.86195 83.3229 3.33113C85.2829 3.85765 87.3242 4.02207 89.8264 4.46242C84.8069 9.17078 79.4923 12.4595 73.6981 14.9167C52.4896 24.0135 31.4197 22.6133 10.6747 13.2005C7.97482 11.9535 5.43502 10.4018 2.79212 9.07603C1.99242 8.85395 1.26049 8.6211 -7.17494e-06 8.12309Z" fill="#DF6951"/>
</svg>
