<svg width="24" height="18" viewBox="0 0 24 18" fill="none" xmlns="http://www.w3.org/2000/svg">
<path d="M20.8184 17.9291C20.3683 17.9383 19.9261 17.8095 19.5513 17.56C19.2723 17.3777 18.9463 17.2806 18.613 17.2806C18.2798 17.2806 17.9537 17.3777 17.6748 17.56C17.2961 17.801 16.8566 17.9291 16.4078 17.9291C15.959 17.9291 15.5194 17.801 15.1408 17.56C14.8618 17.3775 14.5357 17.2803 14.2024 17.2803C13.869 17.2803 13.5429 17.3775 13.264 17.56C12.8853 17.801 12.4458 17.9291 11.997 17.9291C11.5481 17.9291 11.1086 17.801 10.73 17.56C10.4512 17.3776 10.1253 17.2805 9.79222 17.2805C9.4591 17.2805 9.13321 17.3776 8.85444 17.56C8.51117 17.7881 8.11056 17.9149 7.69854 17.9258L7.67584 17.2772C7.98018 17.27 8.27572 17.1737 8.5259 17.0002C8.90441 16.7592 9.34382 16.6312 9.79255 16.6312C10.2413 16.6312 10.6807 16.7592 11.0592 17.0002C11.3381 17.1826 11.6642 17.2797 11.9975 17.2797C12.3307 17.2797 12.6568 17.1826 12.9357 17.0002C13.3144 16.759 13.7541 16.6309 14.203 16.6309C14.652 16.6309 15.0917 16.759 15.4703 17.0002C15.7493 17.1826 16.0753 17.2797 16.4086 17.2797C16.7419 17.2797 17.0679 17.1826 17.3469 17.0002C17.7255 16.7592 18.165 16.6312 18.6138 16.6312C19.0627 16.6312 19.5022 16.7592 19.8808 17.0002C20.1604 17.183 20.4873 17.2804 20.8214 17.2804C21.1554 17.2804 21.4823 17.183 21.7619 17.0002C22.1363 16.7514 22.5777 16.6229 23.0271 16.6318V17.2804C22.6925 17.2713 22.3637 17.3691 22.0885 17.5597C21.7128 17.8095 21.2696 17.9384 20.8184 17.9291Z" fill="white"/>
<path d="M3.17843 17.9287C2.72836 17.938 2.28626 17.8092 1.91162 17.5596C1.63649 17.3689 1.30767 17.2709 0.973022 17.2801V16.6314C1.42319 16.6221 1.86542 16.7509 2.24016 17.0005C2.51513 17.1913 2.84387 17.2892 3.17843 17.2801C3.51314 17.2893 3.84202 17.1912 4.11702 17.0002C4.49096 16.7507 4.93246 16.622 5.38189 16.6314C5.82042 16.6216 6.2517 16.7444 6.61918 16.9839L6.29194 17.5437C6.02351 17.3631 5.70531 17.2709 5.38189 17.2801C5.04856 17.2711 4.72108 17.3688 4.44718 17.559C4.07212 17.8093 3.62923 17.9383 3.17843 17.9287Z" fill="white"/>
<path d="M20.8194 15.6581C20.3689 15.6673 19.9265 15.5386 19.5513 15.2891C19.2721 15.1066 18.9458 15.0094 18.6122 15.0094C18.2787 15.0094 17.9523 15.1066 17.6731 15.2891C17.2946 15.53 16.8551 15.658 16.4063 15.658C15.9576 15.658 15.5181 15.53 15.1395 15.2891C14.8607 15.1067 14.5347 15.0096 14.2016 15.0096C13.8684 15.0096 13.5425 15.1067 13.2636 15.2891C12.8851 15.5301 12.4456 15.6582 11.9968 15.6582C11.548 15.6582 11.1085 15.5301 10.73 15.2891C10.4512 15.1067 10.1252 15.0096 9.79205 15.0096C9.45888 15.0096 9.13294 15.1067 8.8541 15.2891C8.47948 15.5387 8.03736 15.6675 7.58729 15.6581C7.13723 15.6675 6.6951 15.5387 6.32048 15.2891C6.04561 15.0983 5.71699 15.0004 5.38254 15.0095C5.04819 15.0004 4.71969 15.0984 4.44491 15.2891C4.07089 15.5384 3.62947 15.6672 3.18005 15.6581C2.72988 15.6675 2.28765 15.5387 1.91291 15.2891C1.63749 15.0979 1.30813 15 0.973022 15.0095V14.3608C1.42309 14.3515 1.86519 14.4804 2.23983 14.7299C2.51496 14.9207 2.84378 15.0186 3.17843 15.0095C3.51277 15.0186 3.84127 14.9206 4.11605 14.7299C4.49008 14.4806 4.93149 14.3518 5.38091 14.3608C5.83132 14.3513 6.27381 14.4801 6.6487 14.7299C6.92367 14.9207 7.25241 15.0187 7.58697 15.0095C7.92153 15.0187 8.25026 14.9207 8.52524 14.7299C8.90378 14.4888 9.34326 14.3608 9.79205 14.3608C10.2408 14.3608 10.6803 14.4888 11.0589 14.7299C11.3377 14.9123 11.6637 15.0094 11.997 15.0094C12.3302 15.0094 12.6562 14.9123 12.9351 14.7299C13.3136 14.4888 13.7531 14.3608 14.2019 14.3608C14.6507 14.3608 15.0902 14.4888 15.4687 14.7299C15.7476 14.9123 16.0736 15.0094 16.4068 15.0094C16.74 15.0094 17.066 14.9123 17.3449 14.7299C17.7238 14.4889 18.1636 14.3609 18.6127 14.3609C19.0618 14.3609 19.5016 14.4889 19.8805 14.7299C20.1599 14.9123 20.4863 15.0093 20.8199 15.0093C21.1535 15.0093 21.4799 14.9123 21.7593 14.7299C22.1344 14.4805 22.5767 14.3517 23.0271 14.3608V15.0095C22.6918 15 22.3622 15.098 22.0865 15.2891C21.7116 15.5384 21.2695 15.6671 20.8194 15.6581Z" fill="white"/>
<path d="M20.8184 13.3885C20.3683 13.3977 19.9261 13.2689 19.5513 13.0194C19.2762 12.8287 18.9473 12.7307 18.6127 12.7398C18.3671 12.7314 18.1232 12.7838 17.9028 12.8923L17.6167 12.3085C17.9263 12.1567 18.268 12.0819 18.6127 12.0902C19.0634 12.081 19.5061 12.2102 19.8811 12.4603C20.1608 12.6431 20.4876 12.7404 20.8217 12.7404C21.1558 12.7404 21.4826 12.6431 21.7622 12.4603C22.1364 12.2114 22.5777 12.0826 23.0271 12.0912V12.7398C22.6925 12.7307 22.3637 12.8285 22.0885 13.0191C21.7128 13.2689 21.2696 13.3978 20.8184 13.3885Z" fill="white"/>
<path d="M16.4044 13.3884C15.9549 13.3978 15.5135 13.2691 15.1395 13.0196C14.8605 12.8371 14.5344 12.7399 14.2011 12.7399C13.8677 12.7399 13.5416 12.8371 13.2626 13.0196C12.884 13.2606 12.4445 13.3887 11.9957 13.3887C11.5468 13.3887 11.1073 13.2606 10.7287 13.0196C10.4497 12.8372 10.1237 12.7401 9.79043 12.7401C9.45716 12.7401 9.13111 12.8372 8.85216 13.0196C8.47759 13.2688 8.03578 13.3975 7.586 13.3884C7.13593 13.3977 6.69382 13.2689 6.31918 13.0193C6.04406 12.8285 5.71524 12.7306 5.38059 12.7397C5.04726 12.7307 4.71978 12.8284 4.44589 13.0186C4.07119 13.2687 3.62879 13.3977 3.17843 13.3884C2.72837 13.3977 2.28626 13.2689 1.91162 13.0193C1.63649 12.8285 1.30767 12.7306 0.973022 12.7397V12.0911C1.42319 12.0817 1.86542 12.2105 2.24016 12.4601C2.51513 12.6509 2.84387 12.7489 3.17843 12.7397C3.51314 12.7489 3.84202 12.6508 4.11702 12.4598C4.49096 12.2103 4.93246 12.0816 5.38189 12.0911C5.83195 12.0818 6.27405 12.2106 6.6487 12.4601C6.92367 12.6509 7.25241 12.7489 7.58697 12.7397C7.92162 12.7488 8.25044 12.6509 8.52556 12.4601C8.90418 12.2191 9.3437 12.0911 9.79254 12.0911C10.2414 12.0911 10.6809 12.2191 11.0595 12.4601C11.3385 12.6425 11.6645 12.7396 11.9978 12.7396C12.3311 12.7396 12.6571 12.6425 12.9361 12.4601C13.3147 12.2189 13.7544 12.0908 14.2033 12.0908C14.6523 12.0908 15.092 12.2189 15.4706 12.4601C15.7564 12.6523 16.0952 12.75 16.4394 12.7394C16.4644 12.7397 16.4895 12.7384 16.5143 12.7355L16.6006 13.3783C16.5355 13.3859 16.4699 13.3893 16.4044 13.3884Z" fill="white"/>
<path d="M20.8194 11.1181C20.3689 11.1273 19.9265 10.9985 19.5513 10.749C19.2721 10.5666 18.9458 10.4694 18.6122 10.4694C18.2787 10.4694 17.9523 10.5666 17.6731 10.749C17.2946 10.99 16.8551 11.118 16.4063 11.118C15.9576 11.118 15.5181 10.99 15.1395 10.749C14.8607 10.5667 14.5347 10.4696 14.2016 10.4696C13.8684 10.4696 13.5425 10.5667 13.2636 10.749C12.8851 10.9901 12.4456 11.1181 11.9968 11.1181C11.548 11.1181 11.1085 10.9901 10.73 10.749C10.4512 10.5667 10.1252 10.4696 9.79205 10.4696C9.45888 10.4696 9.13294 10.5667 8.8541 10.749C8.47948 10.9986 8.03736 11.1275 7.58729 11.1181C7.13723 11.1275 6.6951 10.9986 6.32048 10.749C6.04561 10.5583 5.71699 10.4603 5.38254 10.4695C5.04819 10.4604 4.71969 10.5583 4.44491 10.749C4.07089 10.9984 3.62947 11.1272 3.18005 11.1181C2.72988 11.1275 2.28765 10.9986 1.91291 10.749C1.63749 10.5579 1.30813 10.4599 0.973022 10.4695V9.82081C1.42309 9.81151 1.86519 9.94031 2.23983 10.1899C2.51496 10.3806 2.84378 10.4786 3.17843 10.4695C3.51277 10.4785 3.84127 10.3806 4.11605 10.1899C4.49008 9.94056 4.93149 9.81176 5.38091 9.82081C5.83132 9.81124 6.27381 9.94006 6.6487 10.1899C6.92367 10.3807 7.25241 10.4786 7.58697 10.4695C7.92153 10.4786 8.25026 10.3807 8.52524 10.1899C8.90378 9.9488 9.34326 9.82073 9.79205 9.82073C10.2408 9.82073 10.6803 9.9488 11.0589 10.1899C11.3377 10.3723 11.6637 10.4694 11.997 10.4694C12.3302 10.4694 12.6562 10.3723 12.9351 10.1899C13.3136 9.9488 13.7531 9.82073 14.2019 9.82073C14.6507 9.82073 15.0902 9.9488 15.4687 10.1899C15.7476 10.3723 16.0736 10.4694 16.4068 10.4694C16.74 10.4694 17.066 10.3723 17.3449 10.1899C17.7238 9.94889 18.1636 9.82089 18.6127 9.82089C19.0618 9.82089 19.5016 9.94889 19.8805 10.1899C20.1599 10.3722 20.4863 10.4693 20.8199 10.4693C21.1535 10.4693 21.4799 10.3722 21.7593 10.1899C22.1344 9.94046 22.5767 9.81168 23.0271 9.82081V10.4695C22.6918 10.46 22.3622 10.5579 22.0865 10.749C21.7116 10.9983 21.2695 11.1271 20.8194 11.1181Z" fill="white"/>
<path d="M16.1978 10.8428L15.5858 10.6281C15.7434 10.1753 15.8078 9.69521 15.7751 9.21683C15.7424 8.73844 15.6132 8.27162 15.3954 7.84445L13.1676 3.48196C13.1456 3.43888 13.1335 3.39142 13.1323 3.34307C13.131 3.29472 13.1405 3.24669 13.1602 3.2025C13.1799 3.15831 13.2092 3.11909 13.246 3.0877C13.2828 3.05631 13.3262 3.03356 13.3729 3.02109L17.8126 1.83731C17.9573 1.79948 18.0812 1.70604 18.1573 1.57733C18.2334 1.44862 18.2557 1.29505 18.2192 1.15003C18.1826 1.00501 18.0903 0.880281 17.9623 0.802969C17.8343 0.725657 17.681 0.702021 17.5356 0.737204L12.1622 2.02153C12.0474 2.04867 11.9403 2.1019 11.8493 2.17708C11.7583 2.25226 11.6858 2.34737 11.6375 2.45506C11.5892 2.56275 11.5663 2.68012 11.5706 2.79807C11.5749 2.91602 11.6064 3.0314 11.6624 3.13526L13.2581 6.09958C13.2986 6.17492 13.3077 6.2632 13.2834 6.3452C13.2591 6.4272 13.2034 6.49629 13.1284 6.53742L11.0689 7.67255L10.756 7.10434L12.5339 6.12423L11.092 3.44272C10.9888 3.25129 10.9311 3.0387 10.9232 2.8214C10.9153 2.60409 10.9575 2.38788 11.0466 2.1895C11.1356 1.99111 11.2691 1.81586 11.4367 1.67729C11.6042 1.53873 11.8014 1.44057 12.013 1.39039L17.3838 0.106393C17.6965 0.0273873 18.0278 0.0758247 18.3047 0.241049C18.5817 0.406274 18.7816 0.674751 18.8607 0.98742C18.9397 1.30009 18.8912 1.63134 18.726 1.90829C18.5608 2.18525 18.2923 2.38522 17.9796 2.46423L13.9275 3.54423L15.9734 7.54899C16.231 8.0545 16.3837 8.60691 16.4222 9.17297C16.4608 9.73902 16.3845 10.307 16.1978 10.8428Z" fill="white"/>
<path d="M9.62232 7.73426L5.68106 9.90601L5.99395 10.4738L9.93521 8.30209L9.62232 7.73426Z" fill="white"/>
<path d="M19.1352 8.68517C18.6541 8.68517 18.1838 8.54252 17.7838 8.27524C17.3838 8.00796 17.072 7.62806 16.8879 7.1836C16.7038 6.73913 16.6556 6.25005 16.7495 5.7782C16.8434 5.30636 17.075 4.87294 17.4152 4.53276C17.7554 4.19257 18.1888 3.96091 18.6606 3.86705C19.1325 3.7732 19.6216 3.82137 20.066 4.00547C20.5105 4.18958 20.8904 4.50135 21.1577 4.90136C21.425 5.30137 21.5676 5.77165 21.5676 6.25274C21.5669 6.89765 21.3104 7.51595 20.8544 7.97197C20.3984 8.428 19.7801 8.68449 19.1352 8.68517ZM19.1352 4.46896C18.7824 4.46896 18.4375 4.57358 18.1442 4.76958C17.8508 4.96559 17.6222 5.24418 17.4872 5.57012C17.3522 5.89606 17.3169 6.25472 17.3857 6.60074C17.4545 6.94676 17.6244 7.2646 17.8739 7.51407C18.1233 7.76354 18.4412 7.93342 18.7872 8.00225C19.1332 8.07108 19.4919 8.03575 19.8178 7.90074C20.1438 7.76573 20.4223 7.5371 20.6183 7.24376C20.8144 6.95042 20.919 6.60554 20.919 6.25274C20.9184 5.77984 20.7302 5.32648 20.3959 4.99208C20.0615 4.65769 19.6081 4.46956 19.1352 4.46896Z" fill="white"/>
</svg>
