<svg width="28" height="29" viewBox="0 0 28 29" fill="none" xmlns="http://www.w3.org/2000/svg">
<path d="M21.4881 12.0134C21.4881 9.96174 20.6731 7.99412 19.2224 6.54339C17.7717 5.09266 15.804 4.27765 13.7524 4.27765C11.7007 4.27765 9.73314 5.09266 8.2824 6.54339C6.83167 7.99412 6.01666 9.96174 6.01666 12.0134C6.01666 15.1868 8.5557 19.3228 13.7524 24.2771C18.9491 19.3228 21.4881 15.1868 21.4881 12.0134ZM13.7524 26.6253C7.44863 20.8957 4.29761 16.0239 4.29761 12.0134C4.29761 9.50582 5.29373 7.10095 7.06685 5.32784C8.83997 3.55472 11.2448 2.55859 13.7524 2.55859C16.26 2.55859 18.6648 3.55472 20.4379 5.32784C22.2111 7.10095 23.2072 9.50582 23.2072 12.0134C23.2072 16.0239 20.0562 20.8957 13.7524 26.6253Z" fill="#7D7D7D"/>
<path d="M13.7524 14.593C14.4363 14.593 15.0922 14.3213 15.5757 13.8378C16.0593 13.3542 16.331 12.6983 16.331 12.0144C16.331 11.3305 16.0593 10.6747 15.5757 10.1911C15.0922 9.70752 14.4363 9.43585 13.7524 9.43585C13.0685 9.43585 12.4127 9.70752 11.9291 10.1911C11.4455 10.6747 11.1738 11.3305 11.1738 12.0144C11.1738 12.6983 11.4455 13.3542 11.9291 13.8378C12.4127 14.3213 13.0685 14.593 13.7524 14.593ZM13.7524 16.3121C12.6126 16.3121 11.5195 15.8593 10.7135 15.0533C9.90756 14.2473 9.45477 13.1542 9.45477 12.0144C9.45477 10.8746 9.90756 9.78151 10.7135 8.97554C11.5195 8.16958 12.6126 7.7168 13.7524 7.7168C14.8922 7.7168 15.9853 8.16958 16.7913 8.97554C17.5972 9.78151 18.05 10.8746 18.05 12.0144C18.05 13.1542 17.5972 14.2473 16.7913 15.0533C15.9853 15.8593 14.8922 16.3121 13.7524 16.3121Z" fill="#7D7D7D"/>
</svg>
