<svg width="92" height="16" viewBox="0 0 92 16" fill="none" xmlns="http://www.w3.org/2000/svg">
<g clip-path="url(#clip0_1_450)">
<path d="M3.612 15.443C3.226 15.641 2.788 15.294 2.866 14.851L3.696 10.121L0.172996 6.76501C-0.156004 6.45101 0.0149962 5.87701 0.455996 5.81501L5.354 5.11901L7.538 0.792012C7.735 0.402012 8.268 0.402012 8.465 0.792012L10.649 5.11901L15.547 5.81501C15.988 5.87701 16.159 6.45101 15.829 6.76501L12.307 10.121L13.137 14.851C13.215 15.294 12.777 15.641 12.391 15.443L8 13.187L3.611 15.443H3.612Z" fill="#FFBA0A"/>
</g>
<g clip-path="url(#clip1_1_450)">
<path d="M22.612 15.443C22.226 15.641 21.788 15.294 21.866 14.851L22.696 10.121L19.173 6.76501C18.844 6.45101 19.015 5.87701 19.456 5.81501L24.354 5.11901L26.538 0.792012C26.735 0.402012 27.268 0.402012 27.465 0.792012L29.649 5.11901L34.547 5.81501C34.988 5.87701 35.159 6.45101 34.829 6.76501L31.307 10.121L32.137 14.851C32.215 15.294 31.777 15.641 31.391 15.443L27 13.187L22.611 15.443H22.612Z" fill="#FFBA0A"/>
</g>
<g clip-path="url(#clip2_1_450)">
<path d="M41.612 15.443C41.226 15.641 40.788 15.294 40.866 14.851L41.696 10.121L38.173 6.76501C37.844 6.45101 38.015 5.87701 38.456 5.81501L43.354 5.11901L45.538 0.792012C45.735 0.402012 46.268 0.402012 46.465 0.792012L48.649 5.11901L53.547 5.81501C53.988 5.87701 54.159 6.45101 53.829 6.76501L50.307 10.121L51.137 14.851C51.215 15.294 50.777 15.641 50.391 15.443L46 13.187L41.611 15.443H41.612Z" fill="#FFBA0A"/>
</g>
<g clip-path="url(#clip3_1_450)">
<path d="M60.612 15.443C60.226 15.641 59.788 15.294 59.866 14.851L60.696 10.121L57.173 6.76501C56.844 6.45101 57.015 5.87701 57.456 5.81501L62.354 5.11901L64.538 0.792012C64.735 0.402012 65.268 0.402012 65.465 0.792012L67.649 5.11901L72.547 5.81501C72.988 5.87701 73.159 6.45101 72.829 6.76501L69.307 10.121L70.137 14.851C70.215 15.294 69.777 15.641 69.391 15.443L65 13.187L60.611 15.443H60.612Z" fill="#FFBA0A"/>
</g>
<g clip-path="url(#clip4_1_450)">
<path d="M79.612 15.443C79.226 15.641 78.788 15.294 78.866 14.851L79.696 10.121L76.173 6.76501C75.844 6.45101 76.015 5.87701 76.456 5.81501L81.354 5.11901L83.538 0.792012C83.735 0.402012 84.268 0.402012 84.465 0.792012L86.649 5.11901L91.547 5.81501C91.988 5.87701 92.159 6.45101 91.829 6.76501L88.307 10.121L89.137 14.851C89.215 15.294 88.777 15.641 88.391 15.443L84 13.187L79.611 15.443H79.612Z" fill="#FFBA0A"/>
</g>
<defs>
<clipPath id="clip0_1_450">
<rect width="16" height="16" fill="white"/>
</clipPath>
<clipPath id="clip1_1_450">
<rect width="16" height="16" fill="white" transform="translate(19)"/>
</clipPath>
<clipPath id="clip2_1_450">
<rect width="16" height="16" fill="white" transform="translate(38)"/>
</clipPath>
<clipPath id="clip3_1_450">
<rect width="16" height="16" fill="white" transform="translate(57)"/>
</clipPath>
<clipPath id="clip4_1_450">
<rect width="16" height="16" fill="white" transform="translate(76)"/>
</clipPath>
</defs>
</svg>
