<svg width="92" height="16" viewBox="0 0 92 16" fill="none" xmlns="http://www.w3.org/2000/svg">
<g clip-path="url(#clip0_1_590)">
<path d="M3.61212 15.4425C3.22612 15.6405 2.78812 15.2935 2.86612 14.8505L3.69612 10.1205L0.173118 6.76452C-0.155882 6.45052 0.0151183 5.87652 0.456118 5.81452L5.35412 5.11852L7.53812 0.791523C7.73512 0.401523 8.26812 0.401523 8.46512 0.791523L10.6491 5.11852L15.5471 5.81452C15.9881 5.87652 16.1591 6.45052 15.8291 6.76452L12.3071 10.1205L13.1371 14.8505C13.2151 15.2935 12.7771 15.6405 12.3911 15.4425L8.00012 13.1865L3.61112 15.4425H3.61212Z" fill="#FFBA0A"/>
</g>
<g clip-path="url(#clip1_1_590)">
<path d="M22.6121 15.4425C22.2261 15.6405 21.7881 15.2935 21.8661 14.8505L22.6961 10.1205L19.1731 6.76452C18.8441 6.45052 19.0151 5.87652 19.4561 5.81452L24.3541 5.11852L26.5381 0.791523C26.7351 0.401523 27.2681 0.401523 27.4651 0.791523L29.6491 5.11852L34.5471 5.81452C34.9881 5.87652 35.1591 6.45052 34.8291 6.76452L31.3071 10.1205L32.1371 14.8505C32.2151 15.2935 31.7771 15.6405 31.3911 15.4425L27.0001 13.1865L22.6111 15.4425H22.6121Z" fill="#FFBA0A"/>
</g>
<g clip-path="url(#clip2_1_590)">
<path d="M41.6121 15.4425C41.2261 15.6405 40.7881 15.2935 40.8661 14.8505L41.6961 10.1205L38.1731 6.76452C37.8441 6.45052 38.0151 5.87652 38.4561 5.81452L43.3541 5.11852L45.5381 0.791523C45.7351 0.401523 46.2681 0.401523 46.4651 0.791523L48.6491 5.11852L53.5471 5.81452C53.9881 5.87652 54.1591 6.45052 53.8291 6.76452L50.3071 10.1205L51.1371 14.8505C51.2151 15.2935 50.7771 15.6405 50.3911 15.4425L46.0001 13.1865L41.6111 15.4425H41.6121Z" fill="#FFBA0A"/>
</g>
<g clip-path="url(#clip3_1_590)">
<path d="M60.6121 15.4425C60.2261 15.6405 59.7881 15.2935 59.8661 14.8505L60.6961 10.1205L57.1731 6.76452C56.8441 6.45052 57.0151 5.87652 57.4561 5.81452L62.3541 5.11852L64.5381 0.791523C64.7351 0.401523 65.2681 0.401523 65.4651 0.791523L67.6491 5.11852L72.5471 5.81452C72.9881 5.87652 73.1591 6.45052 72.8291 6.76452L69.3071 10.1205L70.1371 14.8505C70.2151 15.2935 69.7771 15.6405 69.3911 15.4425L65.0001 13.1865L60.6111 15.4425H60.6121Z" fill="#FFBA0A"/>
</g>
<g clip-path="url(#clip4_1_590)">
<path d="M79.6121 15.4425C79.2261 15.6405 78.7881 15.2935 78.8661 14.8505L79.6961 10.1205L76.1731 6.76452C75.8441 6.45052 76.0151 5.87652 76.4561 5.81452L81.3541 5.11852L83.5381 0.791523C83.7351 0.401523 84.2681 0.401523 84.4651 0.791523L86.6491 5.11852L91.5471 5.81452C91.9881 5.87652 92.1591 6.45052 91.8291 6.76452L88.3071 10.1205L89.1371 14.8505C89.2151 15.2935 88.7771 15.6405 88.3911 15.4425L84.0001 13.1865L79.6111 15.4425H79.6121Z" fill="#FFBA0A"/>
</g>
<defs>
<clipPath id="clip0_1_590">
<rect width="16" height="16" fill="white"/>
</clipPath>
<clipPath id="clip1_1_590">
<rect width="16" height="16" fill="white" transform="translate(19)"/>
</clipPath>
<clipPath id="clip2_1_590">
<rect width="16" height="16" fill="white" transform="translate(38)"/>
</clipPath>
<clipPath id="clip3_1_590">
<rect width="16" height="16" fill="white" transform="translate(57)"/>
</clipPath>
<clipPath id="clip4_1_590">
<rect width="16" height="16" fill="white" transform="translate(76)"/>
</clipPath>
</defs>
</svg>
