<svg width="183" height="30" viewBox="0 0 183 30" fill="none" xmlns="http://www.w3.org/2000/svg">
<path d="M44.66 7.96V22H41.24V7.96H44.66ZM55.9384 10.72C57.2451 10.72 58.2851 11.1467 59.0584 12C59.8451 12.84 60.2384 14 60.2384 15.48V22H56.8384V15.94C56.8384 15.1933 56.6451 14.6133 56.2584 14.2C55.8718 13.7867 55.3518 13.58 54.6984 13.58C54.0451 13.58 53.5251 13.7867 53.1384 14.2C52.7518 14.6133 52.5584 15.1933 52.5584 15.94V22H49.1384V10.84H52.5584V12.32C52.9051 11.8267 53.3718 11.44 53.9584 11.16C54.5451 10.8667 55.2051 10.72 55.9384 10.72ZM70.215 13.68H68.375V22H64.955V13.68H63.715V10.84H64.955V10.52C64.955 9.14667 65.3483 8.10667 66.135 7.4C66.9217 6.68 68.075 6.32 69.595 6.32C69.8483 6.32 70.035 6.32667 70.155 6.34V9.24C69.5017 9.2 69.0417 9.29333 68.775 9.52C68.5083 9.74667 68.375 10.1533 68.375 10.74V10.84H70.215V13.68ZM78.902 22.16C77.8087 22.16 76.822 21.9267 75.942 21.46C75.0754 20.9933 74.3887 20.3267 73.882 19.46C73.3887 18.5933 73.142 17.58 73.142 16.42C73.142 15.2733 73.3954 14.2667 73.902 13.4C74.4087 12.52 75.102 11.8467 75.982 11.38C76.862 10.9133 77.8487 10.68 78.942 10.68C80.0354 10.68 81.022 10.9133 81.902 11.38C82.782 11.8467 83.4754 12.52 83.982 13.4C84.4887 14.2667 84.742 15.2733 84.742 16.42C84.742 17.5667 84.482 18.58 83.962 19.46C83.4554 20.3267 82.7554 20.9933 81.862 21.46C80.982 21.9267 79.9954 22.16 78.902 22.16ZM78.902 19.2C79.5554 19.2 80.1087 18.96 80.562 18.48C81.0287 18 81.262 17.3133 81.262 16.42C81.262 15.5267 81.0354 14.84 80.582 14.36C80.142 13.88 79.5954 13.64 78.942 13.64C78.2754 13.64 77.722 13.88 77.282 14.36C76.842 14.8267 76.622 15.5133 76.622 16.42C76.622 17.3133 76.8354 18 77.262 18.48C77.702 18.96 78.2487 19.2 78.902 19.2ZM91.9764 12.7C92.3764 12.0867 92.8764 11.6067 93.4764 11.26C94.0764 10.9 94.7431 10.72 95.4764 10.72V14.34H94.5364C93.6831 14.34 93.0431 14.5267 92.6164 14.9C92.1897 15.26 91.9764 15.9 91.9764 16.82V22H88.5564V10.84H91.9764V12.7ZM113.351 10.72C114.738 10.72 115.838 11.14 116.651 11.98C117.478 12.82 117.891 13.9867 117.891 15.48V22H114.491V15.94C114.491 15.22 114.298 14.6667 113.911 14.28C113.538 13.88 113.018 13.68 112.351 13.68C111.684 13.68 111.158 13.88 110.771 14.28C110.398 14.6667 110.211 15.22 110.211 15.94V22H106.811V15.94C106.811 15.22 106.618 14.6667 106.231 14.28C105.858 13.88 105.338 13.68 104.671 13.68C104.004 13.68 103.478 13.88 103.091 14.28C102.718 14.6667 102.531 15.22 102.531 15.94V22H99.1111V10.84H102.531V12.24C102.878 11.7733 103.331 11.4067 103.891 11.14C104.451 10.86 105.084 10.72 105.791 10.72C106.631 10.72 107.378 10.9 108.031 11.26C108.698 11.62 109.218 12.1333 109.591 12.8C109.978 12.1867 110.504 11.6867 111.171 11.3C111.838 10.9133 112.564 10.72 113.351 10.72ZM121.603 16.4C121.603 15.2533 121.816 14.2467 122.243 13.38C122.683 12.5133 123.276 11.8467 124.023 11.38C124.77 10.9133 125.603 10.68 126.523 10.68C127.31 10.68 127.996 10.84 128.583 11.16C129.183 11.48 129.643 11.9 129.963 12.42V10.84H133.383V22H129.963V20.42C129.63 20.94 129.163 21.36 128.563 21.68C127.976 22 127.29 22.16 126.503 22.16C125.596 22.16 124.77 21.9267 124.023 21.46C123.276 20.98 122.683 20.3067 122.243 19.44C121.816 18.56 121.603 17.5467 121.603 16.4ZM129.963 16.42C129.963 15.5667 129.723 14.8933 129.243 14.4C128.776 13.9067 128.203 13.66 127.523 13.66C126.843 13.66 126.263 13.9067 125.783 14.4C125.316 14.88 125.083 15.5467 125.083 16.4C125.083 17.2533 125.316 17.9333 125.783 18.44C126.263 18.9333 126.843 19.18 127.523 19.18C128.203 19.18 128.776 18.9333 129.243 18.44C129.723 17.9467 129.963 17.2733 129.963 16.42ZM144.077 19.1V22H142.337C141.097 22 140.131 21.7 139.437 21.1C138.744 20.4867 138.397 19.4933 138.397 18.12V13.68H137.037V10.84H138.397V8.12H141.817V10.84H144.057V13.68H141.817V18.16C141.817 18.4933 141.897 18.7333 142.057 18.88C142.217 19.0267 142.484 19.1 142.857 19.1H144.077ZM149.702 9.68C149.102 9.68 148.609 9.50667 148.222 9.16C147.849 8.8 147.662 8.36 147.662 7.84C147.662 7.30667 147.849 6.86667 148.222 6.52C148.609 6.16 149.102 5.98 149.702 5.98C150.289 5.98 150.769 6.16 151.142 6.52C151.529 6.86667 151.722 7.30667 151.722 7.84C151.722 8.36 151.529 8.8 151.142 9.16C150.769 9.50667 150.289 9.68 149.702 9.68ZM151.402 10.84V22H147.982V10.84H151.402ZM160.961 22.16C159.867 22.16 158.881 21.9267 158.001 21.46C157.134 20.9933 156.447 20.3267 155.941 19.46C155.447 18.5933 155.201 17.58 155.201 16.42C155.201 15.2733 155.454 14.2667 155.961 13.4C156.467 12.52 157.161 11.8467 158.041 11.38C158.921 10.9133 159.907 10.68 161.001 10.68C162.094 10.68 163.081 10.9133 163.961 11.38C164.841 11.8467 165.534 12.52 166.041 13.4C166.547 14.2667 166.801 15.2733 166.801 16.42C166.801 17.5667 166.541 18.58 166.021 19.46C165.514 20.3267 164.814 20.9933 163.921 21.46C163.041 21.9267 162.054 22.16 160.961 22.16ZM160.961 19.2C161.614 19.2 162.167 18.96 162.621 18.48C163.087 18 163.321 17.3133 163.321 16.42C163.321 15.5267 163.094 14.84 162.641 14.36C162.201 13.88 161.654 13.64 161.001 13.64C160.334 13.64 159.781 13.88 159.341 14.36C158.901 14.8267 158.681 15.5133 158.681 16.42C158.681 17.3133 158.894 18 159.321 18.48C159.761 18.96 160.307 19.2 160.961 19.2ZM177.415 10.72C178.722 10.72 179.762 11.1467 180.535 12C181.322 12.84 181.715 14 181.715 15.48V22H178.315V15.94C178.315 15.1933 178.122 14.6133 177.735 14.2C177.348 13.7867 176.828 13.58 176.175 13.58C175.522 13.58 175.002 13.7867 174.615 14.2C174.228 14.6133 174.035 15.1933 174.035 15.94V22H170.615V10.84H174.035V12.32C174.382 11.8267 174.848 11.44 175.435 11.16C176.022 10.8667 176.682 10.72 177.415 10.72Z" fill="#343434"/>
<g clip-path="url(#clip0_1_579)">
<path d="M13 26.375C9.98316 26.375 7.08989 25.1766 4.95666 23.0433C2.82343 20.9101 1.625 18.0168 1.625 15C1.625 11.9832 2.82343 9.08989 4.95666 6.95666C7.08989 4.82343 9.98316 3.625 13 3.625C16.0168 3.625 18.9101 4.82343 21.0433 6.95666C23.1766 9.08989 24.375 11.9832 24.375 15C24.375 18.0168 23.1766 20.9101 21.0433 23.0433C18.9101 25.1766 16.0168 26.375 13 26.375ZM13 28C16.4478 28 19.7544 26.6304 22.1924 24.1924C24.6304 21.7544 26 18.4478 26 15C26 11.5522 24.6304 8.24558 22.1924 5.80761C19.7544 3.36964 16.4478 2 13 2C9.55219 2 6.24558 3.36964 3.80761 5.80761C1.36964 8.24558 0 11.5522 0 15C0 18.4478 1.36964 21.7544 3.80761 24.1924C6.24558 26.6304 9.55219 28 13 28Z" fill="black"/>
<path d="M14.5112 12.7055L10.7899 13.1719L10.6567 13.7894L11.3879 13.9242C11.8657 14.038 11.9599 14.2102 11.8559 14.6864L10.6567 20.3219C10.3414 21.7795 10.8273 22.4652 11.9697 22.4652C12.8553 22.4652 13.8839 22.0557 14.3503 21.4935L14.4933 20.8175C14.1683 21.1035 13.6938 21.2172 13.3785 21.2172C12.9317 21.2172 12.7692 20.9036 12.8845 20.3511L14.5112 12.7055ZM14.6249 9.3125C14.6249 9.74348 14.4537 10.1568 14.149 10.4615C13.8442 10.7663 13.4309 10.9375 12.9999 10.9375C12.5689 10.9375 12.1556 10.7663 11.8509 10.4615C11.5461 10.1568 11.3749 9.74348 11.3749 9.3125C11.3749 8.88152 11.5461 8.4682 11.8509 8.16345C12.1556 7.8587 12.5689 7.6875 12.9999 7.6875C13.4309 7.6875 13.8442 7.8587 14.149 8.16345C14.4537 8.4682 14.6249 8.88152 14.6249 9.3125Z" fill="black"/>
</g>
<defs>
<clipPath id="clip0_1_579">
<rect width="26" height="26" fill="white" transform="translate(0 2)"/>
</clipPath>
</defs>
</svg>
